<svg width="180" height="48" viewBox="0 0 180 48" fill="none" xmlns="http://www.w3.org/2000/svg">
  <rect width="48" height="48" rx="12" fill="#F7931A"/>
  <path d="M34.1 21.2c.5-3.2-1.9-4.9-5.2-6l1-4.2-2.6-.6-1 4c-.7-.2-1.4-.3-2.1-.5l1-4.1-2.6-.6-1 4.2c-.6-.1-1.1-.3-1.6-.4v0l-3.6-.9-.7 2.8s1.9.4 1.9.5c1 .3 1.2 1 1.2 1.5L17.5 24c.1 0 .2.1.3.1l-.3-.1-.9 5.3c-.1.3-.4.7-1 .5 0 .1-1.9-.5-1.9-.5l-1.3 3 3.4.8 1.9.5-1 4.3 2.6.6 1-4.2c.7.2 1.4.4 2.1.5l-1 4.1 2.6.6 1-4.2c4.2.8 7.4.5 8.7-3.3.9-2.7 0-4.2-2-5.2 1.4-.3 2.5-1.3 2.8-3.3zm-5 7c-.7 2.7-5.3 1.2-6.8.9l1.2-4.8c1.5.4 6.4 1.1 5.6 3.9zm.7-7c-.6 2.5-4.5 1.2-5.7.9l1.1-4.4c1.3.3 5.3 1 4.6 3.5z" fill="white"/>
  <text x="60" y="20" font-family="Arial, sans-serif" font-size="14" font-weight="700" fill="#F7931A">Crypto</text>
  <text x="60" y="38" font-family="Arial, sans-serif" font-size="14" font-weight="700" fill="white">Trading</text>
</svg>
