<svg width="182" height="45" viewBox="0 0 182 45" fill="none" xmlns="http://www.w3.org/2000/svg">
<g clip-path="url(#clip0_456_2513)">
<mask id="mask0_456_2513" style="mask-type:luminance" maskUnits="userSpaceOnUse" x="0" y="0" width="183" height="45">
<path d="M182.811 0.654297V44.9358H0.149414V0.654297H182.811Z" fill="white"/>
</mask>
<g mask="url(#mask0_456_2513)">
<mask id="mask1_456_2513" style="mask-type:luminance" maskUnits="userSpaceOnUse" x="0" y="0" width="183" height="45">
<path d="M182.811 0.654297H0.149414V44.9358H182.811V0.654297Z" fill="white"/>
</mask>
<g mask="url(#mask1_456_2513)">
<path fill-rule="evenodd" clip-rule="evenodd" d="M40.0603 21.4729C40.0603 32.7868 31.1266 41.9575 20.1049 41.9575C9.08432 41.9575 0.149414 32.7857 0.149414 21.4729C0.149414 10.159 9.08321 0.988281 20.1049 0.988281C31.1266 0.988281 40.0603 10.1601 40.0603 21.4729Z" fill="#FF7803"/>
<path fill-rule="evenodd" clip-rule="evenodd" d="M13.8693 30.1362C13.8693 31.6274 12.7512 32.8352 11.374 32.8352C9.99688 32.8352 8.87988 31.6274 8.87988 30.1362V20.1729C8.87988 18.6806 9.99799 17.4717 11.374 17.4717C12.7523 17.4717 13.8693 18.6806 13.8693 20.1729V30.1362Z" fill="white"/>
<path fill-rule="evenodd" clip-rule="evenodd" d="M31.3302 30.1119C31.3302 31.6164 30.2121 32.8352 28.835 32.8352C27.4578 32.8352 26.3408 31.6164 26.3408 30.1119V12.5134C26.3408 11.0089 27.4578 9.79004 28.835 9.79004C30.2132 9.79004 31.3302 11.0089 31.3302 12.5134V30.1119Z" fill="white"/>
<path fill-rule="evenodd" clip-rule="evenodd" d="M22.5998 30.3182C22.6013 30.6474 22.5379 30.9736 22.4133 31.2782C22.2886 31.5828 22.1053 31.86 21.8735 32.0937C21.6418 32.3275 21.3664 32.5133 21.0628 32.6406C20.7593 32.7679 20.4337 32.8342 20.1045 32.8356C19.44 32.8324 18.804 32.5654 18.3362 32.0933C17.8685 31.6213 17.6074 30.9828 17.6104 30.3182V16.1481C17.6077 15.4838 17.8689 14.8456 18.3366 14.3737C18.8043 13.9019 19.4402 13.6351 20.1045 13.6318C20.7691 13.6351 21.4051 13.9021 21.8728 14.3741C22.3405 14.8462 22.6016 15.4847 22.5987 16.1492V30.3182H22.5998Z" fill="white"/>
<path fill-rule="evenodd" clip-rule="evenodd" d="M55.8494 2.39062H61.1023V6.80217H55.8494V2.39062ZM63.3618 25.0107C61.8053 25.5421 59.0864 25.8554 57.2842 25.8554H55.8494V12.778C54.9937 12.9031 54.2 13.0901 53.5889 13.2783V9.58637C55.1775 9.05499 57.8952 8.7417 59.6665 8.7417H61.1023V21.8191C61.9581 21.694 62.7518 21.5391 63.3618 21.3188V25.0107Z" fill="white"/>
<path fill-rule="evenodd" clip-rule="evenodd" d="M74.9996 19.6299V13.1537H73.0756C70.4497 13.1537 69.0438 14.3737 69.0438 17.0649V19.5048C69.0438 20.8499 69.625 21.4443 70.9379 21.4443C71.8844 21.4443 73.0756 20.8499 74.0531 20.2244L74.9996 19.6299ZM74.9996 23.5411L73.8085 24.3857C72.2819 25.4485 70.9379 26.1061 69.1368 26.1061C65.685 26.1061 63.792 24.0093 63.792 20.4746V17.0649C63.792 11.9338 67.6091 8.74219 72.6173 8.74219H80.2525V31.7387H74.9996V23.5411Z" fill="white"/>
<path fill-rule="evenodd" clip-rule="evenodd" d="M99.1887 17.3153C99.1887 14.2488 98.2112 13.1528 95.8288 13.1528C93.4465 13.1528 92.5 14.2488 92.5 17.3153C92.5 20.3497 93.4465 21.4445 95.8288 21.4445C98.2112 21.4445 99.1887 20.3497 99.1887 17.3153ZM87.2471 17.3153C87.2471 11.1823 90.3623 8.49219 95.8288 8.49219C101.571 8.49219 104.442 11.1823 104.442 17.3153C104.442 23.8856 101.571 26.1063 95.8288 26.1063C90.3623 26.1063 87.2471 23.8856 87.2471 17.3153Z" fill="white"/>
<path fill-rule="evenodd" clip-rule="evenodd" d="M111.862 14.9684V21.4445H113.817C116.412 21.4445 117.849 20.2246 117.849 17.5345V15.0935C117.849 13.7484 117.237 13.1539 115.924 13.1539C114.977 13.1539 113.817 13.7484 112.809 14.3739L111.862 14.9684ZM104.349 9.58815C105.937 9.05567 108.655 8.74238 110.426 8.74238H111.862V11.0583L113.053 10.2125C114.58 9.11766 115.924 8.49219 117.726 8.49219C121.177 8.49219 123.071 10.5889 123.071 14.1237V17.5334C123.071 22.6645 119.253 25.8561 114.244 25.8561H111.862V31.7378H106.609V12.7786C105.845 12.8895 105.09 13.0568 104.35 13.279V9.58705L104.349 9.58815Z" fill="white"/>
<path fill-rule="evenodd" clip-rule="evenodd" d="M135.287 25.4803C134.157 25.8877 132.995 26.1069 131.896 26.1069C128.018 26.1069 125.269 23.978 125.269 19.5056V13.1523H122.644V8.74188H125.269V4.36133H130.522V8.74188H134.799V13.1534H130.522V18.2845C130.522 20.7566 131.439 21.6942 133.149 21.6942C133.79 21.6942 134.493 21.475 135.287 21.1008V25.4803Z" fill="white"/>
<path fill-rule="evenodd" clip-rule="evenodd" d="M136.267 2.39062H141.521V6.80217H136.267V2.39062ZM143.781 25.0107C142.223 25.5421 139.504 25.8554 137.702 25.8554H136.267V13.13C135.29 13.192 134.802 13.1544 134.007 13.1544V8.7417C136.344 8.7262 138.313 8.7417 140.084 8.7417H141.521V21.8191C142.375 21.694 143.17 21.5391 143.781 21.3188V25.0107Z" fill="white"/>
<path fill-rule="evenodd" clip-rule="evenodd" d="M155.659 17.3153C155.659 14.2488 154.682 13.1528 152.3 13.1528C149.919 13.1528 148.971 14.2488 148.971 17.3153C148.971 20.3497 149.919 21.4445 152.3 21.4445C154.682 21.4445 155.659 20.3497 155.659 17.3153ZM143.718 17.3153C143.718 11.1823 146.833 8.49219 152.3 8.49219C158.042 8.49219 160.913 11.1823 160.913 17.3153C160.913 23.8856 158.042 26.1063 152.3 26.1063C146.833 26.1063 143.718 23.8856 143.718 17.3153Z" fill="white"/>
<path fill-rule="evenodd" clip-rule="evenodd" d="M181.589 25.0106C180 25.543 177.283 25.8552 175.511 25.8552H174.076V15.3439C174.076 13.9977 173.831 13.152 172.518 13.152C171.57 13.152 170.38 13.9048 169.281 14.6243L168.334 15.2188V25.8552H163.08V12.7778C162.226 12.9029 158.691 13.7929 158.081 13.98V10.2881C159.67 9.75669 165.126 8.74153 166.898 8.74153H168.334V11.3386L169.067 10.8372C170.96 9.43011 172.396 8.49023 174.534 8.49023C177.771 8.49023 179.328 10.587 179.328 13.8727V21.819C180.152 21.695 180.947 21.5389 181.589 21.3186V25.0106Z" fill="white"/>
<path d="M61.1775 34.4484V39.3891C61.1742 40.0754 60.9639 40.6356 60.5465 41.0718C60.1292 41.5068 59.5624 41.7515 58.8483 41.8046L58.5993 41.8146C57.8243 41.8146 57.2044 41.5998 56.7439 41.1714C56.2822 40.7419 56.0486 40.1507 56.042 39.399V34.4484H56.9675V39.3692C56.9675 39.895 57.1092 40.3035 57.3915 40.5946C57.6738 40.8858 58.0778 41.0308 58.5993 41.0308C59.1295 41.0308 59.5347 40.8869 59.8159 40.5969C60.096 40.3079 60.2366 39.8994 60.2366 39.3736V34.4473H61.1775V34.4484Z" fill="white"/>
<path d="M63.6912 41.7151H62.79V34.0488H63.6912V41.7151Z" fill="white"/>
<path d="M66.5572 35.0078V36.3141H67.5414V37.0282H66.5561V40.3781C66.5561 40.5939 66.6004 40.7567 66.689 40.8652C66.7764 40.9725 66.9259 41.0268 67.1362 41.0268C67.2403 41.0268 67.3831 41.0069 67.5657 40.967V41.7154C67.3288 41.7818 67.0975 41.815 66.8738 41.815C66.4709 41.815 66.1675 41.691 65.9627 41.4408C65.7579 41.1917 65.6561 40.8364 65.6561 40.3781V37.0282H64.6963V36.3152H65.6561V35.0078H66.5572Z" fill="white"/>
<path d="M70.0702 41.7139H68.8912V36.3149H70.069V41.715L70.0702 41.7139ZM68.796 34.8824C68.7951 34.81 68.8103 34.7385 68.8406 34.6728C68.8709 34.6071 68.9154 34.549 68.9709 34.5026C69.0882 34.3997 69.2609 34.3477 69.4901 34.3477C69.7192 34.3477 69.893 34.3997 70.0126 34.5026C70.131 34.6056 70.1897 34.7329 70.1897 34.8824C70.1908 34.9541 70.1753 35.0252 70.1446 35.09C70.1139 35.1549 70.0688 35.2119 70.0126 35.2565C69.893 35.3562 69.7192 35.406 69.4901 35.406C69.2609 35.406 69.0882 35.3562 68.9709 35.2565C68.9153 35.2115 68.8707 35.1544 68.8404 35.0896C68.8101 35.0247 68.7949 34.9539 68.796 34.8824Z" fill="white"/>
<path d="M72.2597 36.3151L72.284 36.9129C72.6704 36.448 73.1918 36.2155 73.8482 36.2155C74.5855 36.2155 75.087 36.5044 75.3538 37.0834C75.5287 36.8244 75.7568 36.614 76.038 36.4546C76.3434 36.289 76.687 36.2065 77.0343 36.2155C78.19 36.2155 78.7779 36.8421 78.7978 38.0975V41.7153H77.8967V38.1506C77.8967 37.7654 77.8103 37.4775 77.6376 37.286C77.4661 37.0945 77.1771 36.9982 76.7708 36.9982C76.4365 36.9982 76.1586 37.1011 75.9383 37.3059C75.7169 37.5107 75.5885 37.7853 75.5531 38.1318V41.7153H74.6464V38.1761C74.6464 37.3912 74.2722 36.9993 73.5217 36.9993C72.9305 36.9993 72.5253 37.2561 72.3084 37.772V41.7153H71.4072V36.3151H72.2597Z" fill="white"/>
<path d="M83.6098 41.7146C83.5578 41.6083 83.5157 41.419 83.4825 41.1456C83.0641 41.5917 82.5637 41.8142 81.9825 41.8142C81.4622 41.8142 81.036 41.6637 80.7039 41.3626C80.5419 41.2197 80.4133 41.0431 80.3271 40.8451C80.2408 40.6471 80.199 40.4327 80.2046 40.2168C80.2046 39.6544 80.4127 39.2182 80.8301 38.9072C81.2474 38.5961 81.8342 38.44 82.5903 38.44H83.4681V38.016C83.4681 37.6938 83.3741 37.437 83.1859 37.2455C82.9977 37.054 82.7198 36.9577 82.3522 36.9577C82.0312 36.9577 81.7611 37.0418 81.5441 37.2079C81.326 37.3739 81.2175 37.5754 81.2175 37.8112H80.3109C80.3109 37.5422 80.405 37.282 80.591 37.0307C80.7792 36.7794 81.0316 36.5802 81.3515 36.434C81.6714 36.2879 82.0235 36.2148 82.4065 36.2148C83.0132 36.2148 83.4892 36.3698 83.8346 36.6809C84.1778 36.992 84.3571 37.4204 84.3693 37.9662V40.4515C84.3693 40.9474 84.4313 41.3415 84.5553 41.6349V41.7146H83.6098ZM82.1142 41.0105C82.3965 41.0105 82.6644 40.9364 82.9179 40.7858C83.1566 40.6521 83.3486 40.4485 83.4681 40.2024V39.0942H82.7619C81.657 39.0942 81.1057 39.4264 81.1057 40.0873C81.1057 40.3773 81.1998 40.6031 81.388 40.7659C81.5762 40.9297 81.8187 41.0105 82.1142 41.0105Z" fill="white"/>
<path d="M87.2087 35.0078V36.3141H88.1918V37.0282H87.2076V40.3781C87.2076 40.5939 87.2519 40.7567 87.3405 40.8652C87.4279 40.9725 87.5763 41.0268 87.7877 41.0268C87.8918 41.0268 88.0346 41.0069 88.2172 40.967V41.7154C87.9919 41.78 87.7587 41.8136 87.5242 41.815C87.1224 41.815 86.8179 41.691 86.6142 41.4408C86.4094 41.1917 86.3065 40.8364 86.3065 40.3781V37.0282H85.3467V36.3152H86.3065V35.0078H87.2087Z" fill="white"/>
<path d="M91.6305 41.8142C90.9165 41.8142 90.3353 41.574 89.8869 41.0936C89.4386 40.612 89.2139 39.9699 89.2139 39.164V38.9946C89.2139 38.4588 89.3135 37.9806 89.5139 37.5599C89.7131 37.1392 89.9932 36.8093 90.3519 36.5713C90.6963 36.3381 91.1028 36.2139 91.5187 36.2148C92.2051 36.2148 92.7365 36.4462 93.1173 36.9079C93.497 37.3706 93.6874 38.0326 93.6874 38.895V39.2791H90.1161C90.1283 39.8105 90.2799 40.2423 90.5711 40.5688C90.7079 40.7276 90.8783 40.8541 91.0699 40.9391C91.2616 41.0241 91.4697 41.0655 91.6792 41.0604C91.9981 41.0604 92.2671 40.9939 92.4874 40.8611C92.7088 40.7282 92.9025 40.5511 93.0675 40.3319L93.6188 40.7714C93.176 41.4666 92.5139 41.8142 91.6305 41.8142ZM91.5187 36.9732C91.1545 36.9732 90.8501 37.1093 90.6032 37.3795C90.3563 37.6507 90.2036 38.0315 90.1449 38.5197H92.7852V38.45C92.7597 37.9817 92.6357 37.6175 92.4154 37.3595C92.194 37.1027 91.8951 36.9732 91.5187 36.9732Z" fill="white"/>
<path d="M98.8198 35.0078V36.3141H99.805V37.0282H98.8198V40.3781C98.8198 40.5939 98.8641 40.7567 98.9526 40.8652C99.0401 40.9725 99.1895 41.0268 99.3999 41.0268C99.5039 41.0268 99.6467 41.0069 99.8294 40.967V41.7154C99.6044 41.7799 99.3716 41.8135 99.1375 41.815C98.7345 41.815 98.4312 41.691 98.2264 41.4408C98.0216 41.1917 97.9198 40.8364 97.9198 40.3781V37.0282H96.96V36.3152H97.9198V35.0078H98.8198Z" fill="white"/>
<path d="M103.604 37.1431C103.458 37.1192 103.31 37.1077 103.161 37.1088C102.57 37.1088 102.168 37.3667 101.958 37.8826V41.7151H101.056V36.315H101.934L101.948 36.9383C102.244 36.4567 102.662 36.2154 103.204 36.2154C103.341 36.2074 103.478 36.2313 103.604 36.2851V37.1431Z" fill="white"/>
<path d="M107.691 41.7148C107.639 41.6085 107.597 41.4192 107.565 41.1458C107.145 41.5919 106.646 41.8144 106.063 41.8144C105.543 41.8144 105.118 41.6639 104.785 41.3628C104.623 41.2198 104.495 41.0431 104.409 40.8451C104.323 40.6472 104.281 40.4328 104.287 40.217C104.287 39.6546 104.495 39.2184 104.912 38.9073C105.329 38.5963 105.916 38.4402 106.672 38.4402H107.55V38.0162C107.55 37.694 107.456 37.4372 107.267 37.2457C107.079 37.0542 106.802 36.9578 106.434 36.9578C106.113 36.9578 105.843 37.042 105.626 37.208C105.408 37.3741 105.298 37.5756 105.298 37.8114H104.393C104.393 37.5424 104.486 37.2822 104.673 37.0309C104.871 36.7704 105.132 36.565 105.432 36.4342C105.764 36.2854 106.124 36.2106 106.487 36.215C107.095 36.215 107.571 36.37 107.916 36.6811C108.259 36.9922 108.438 37.4206 108.451 37.9664V40.4517C108.451 40.9476 108.513 41.3417 108.636 41.6351V41.7148H107.691ZM106.196 41.0107C106.479 41.0107 106.745 40.9365 106.999 40.786C107.254 40.6365 107.436 40.4428 107.55 40.2026V39.0944H106.844C105.739 39.0944 105.187 39.4265 105.187 40.0874C105.187 40.3775 105.281 40.6033 105.469 40.7661C105.657 40.9299 105.902 41.0107 106.196 41.0107Z" fill="white"/>
<path d="M109.847 38.9696C109.847 38.1415 110.037 37.4751 110.421 36.9714C110.804 36.4666 111.306 36.2153 111.926 36.2153C112.543 36.2153 113.032 36.4312 113.393 36.864V34.0488H114.294V41.7151H113.466L113.422 41.1361C113.062 41.5889 112.56 41.8147 111.917 41.8147C111.306 41.8147 110.809 41.559 110.422 41.0464C110.038 40.5339 109.847 39.8652 109.847 39.0394V38.9696ZM110.747 39.0748C110.747 39.687 110.871 40.1663 111.118 40.5117C111.364 40.8582 111.705 41.032 112.14 41.032C112.713 41.032 113.13 40.7686 113.393 40.2427V37.7629C113.124 37.2537 112.709 36.9991 112.15 36.9991C111.709 36.9991 111.364 37.1729 111.118 37.5227C110.871 37.8725 110.747 38.3895 110.747 39.0748Z" fill="white"/>
<path d="M117.169 41.7139H115.991V36.3149H117.169V41.7139ZM115.896 34.8824C115.896 34.7329 115.954 34.6056 116.07 34.5026C116.187 34.3997 116.361 34.3477 116.59 34.3477C116.819 34.3477 116.993 34.3997 117.112 34.5026C117.168 34.5486 117.214 34.6065 117.244 34.6722C117.275 34.7379 117.291 34.8098 117.29 34.8824C117.291 34.9542 117.276 35.0253 117.245 35.0901C117.214 35.155 117.168 35.2119 117.112 35.2565C116.993 35.3562 116.819 35.406 116.59 35.406C116.361 35.406 116.187 35.3562 116.07 35.2565C116.015 35.2114 115.97 35.1543 115.94 35.0895C115.91 35.0247 115.895 34.9539 115.896 34.8824Z" fill="white"/>
<path d="M119.363 36.3149L119.393 36.9936C119.574 36.7465 119.812 36.5467 120.087 36.4112C120.361 36.2757 120.664 36.2085 120.971 36.2153C122.085 36.2153 122.647 36.8585 122.657 38.146V41.7151H121.755V38.1416C121.752 37.7519 121.665 37.464 121.495 37.2781C121.325 37.0921 121.059 36.9991 120.698 36.9991C120.406 36.9991 120.149 37.0788 119.929 37.2382C119.706 37.4004 119.529 37.6169 119.413 37.867V41.7151H118.511V36.3149H119.363Z" fill="white"/>
<path d="M124.003 38.9698C124.003 38.1284 124.193 37.4587 124.574 36.9616C124.746 36.7238 124.974 36.5316 125.237 36.4016C125.5 36.2715 125.791 36.2077 126.084 36.2155C126.727 36.2155 127.23 36.448 127.589 36.9129L127.634 36.3151H128.457V41.5846C128.457 42.2843 128.255 42.8356 127.851 43.2374C127.445 43.6404 126.903 43.8419 126.22 43.8419C125.841 43.8419 125.469 43.7588 125.104 43.5917C124.768 43.4478 124.479 43.2108 124.272 42.9086L124.739 42.354C125.125 42.8433 125.598 43.088 126.157 43.088C126.596 43.088 126.938 42.9618 127.182 42.7083C127.428 42.4559 127.55 42.0994 127.55 41.64V41.1761C127.189 41.6023 126.697 41.8149 126.074 41.8149C125.458 41.8149 124.957 41.5603 124.576 41.051C124.196 40.5418 124.003 39.8488 124.003 38.9698ZM124.91 39.075C124.91 39.6838 125.031 40.1621 125.275 40.5097C125.52 40.8573 125.859 41.0311 126.298 41.0311C126.867 41.0311 127.284 40.7665 127.55 40.2385V37.772C127.274 37.2561 126.86 36.9982 126.308 36.9982C125.869 36.9982 125.527 37.1731 125.28 37.5229C125.032 37.8727 124.91 38.3897 124.91 39.075Z" fill="white"/>
<path d="M134.871 41.8142C134.156 41.8142 133.574 41.574 133.126 41.0936C132.679 40.612 132.454 39.9699 132.454 39.164V38.9946C132.454 38.4588 132.554 37.9806 132.754 37.5599C132.953 37.1392 133.232 36.8093 133.592 36.5713C133.936 36.338 134.343 36.2138 134.759 36.2149C135.443 36.2149 135.977 36.4462 136.356 36.9079C136.736 37.3706 136.927 38.0326 136.927 38.895V39.2791H133.355C133.369 39.8105 133.52 40.2423 133.811 40.5688C134.101 40.8965 134.471 41.0604 134.919 41.0604C135.237 41.0604 135.507 40.9939 135.728 40.8611C135.949 40.7282 136.143 40.5511 136.308 40.3319L136.858 40.7714C136.416 41.4666 135.754 41.8142 134.871 41.8142ZM134.759 36.9732C134.395 36.9732 134.089 37.1093 133.843 37.3795C133.595 37.6507 133.444 38.0315 133.384 38.5197H136.024V38.45C136 37.9817 135.876 37.6175 135.655 37.3595C135.434 37.1027 135.135 36.9732 134.759 36.9732Z" fill="white"/>
<path d="M139.937 38.2861L141.106 36.3145H142.159L140.434 38.9846L142.213 41.7146H141.17L139.953 39.6931L138.735 41.7146H137.687L139.466 38.9846L137.74 36.3145H138.784L139.937 38.2861Z" fill="white"/>
<path d="M147.767 39.0743C147.767 39.8957 147.583 40.5578 147.217 41.0603C147.051 41.3002 146.827 41.4948 146.567 41.6265C146.307 41.7581 146.017 41.8227 145.726 41.8142C145.085 41.8142 144.582 41.6061 144.216 41.191V43.7914H143.313V36.3145H144.136L144.181 36.9123C144.548 36.4473 145.058 36.2148 145.711 36.2148C146.345 36.2148 146.846 36.4584 147.214 36.9477C147.582 37.437 147.767 38.1178 147.767 38.9891V39.0743ZM146.865 38.9692C146.865 38.3603 146.739 37.8798 146.485 37.5267C146.37 37.358 146.214 37.2212 146.031 37.1289C145.849 37.0366 145.647 36.9918 145.442 36.9986C144.897 36.9986 144.488 37.2455 144.216 37.7414V40.322C144.485 40.8146 144.897 41.0603 145.452 41.0603C145.884 41.0603 146.228 40.8854 146.483 40.5345C146.739 40.1836 146.865 39.6622 146.865 38.9692Z" fill="white"/>
<path d="M151.298 41.8152C150.584 41.8152 150.002 41.575 149.555 41.0945C149.105 40.613 148.882 39.9709 148.882 39.165V38.9956C148.882 38.4598 148.981 37.9816 149.181 37.5609C149.381 37.1402 149.661 36.8103 150.019 36.5723C150.363 36.3392 150.77 36.215 151.186 36.2158C151.872 36.2158 152.404 36.4472 152.784 36.9088C153.165 37.3716 153.354 38.0336 153.354 38.896V39.2801H149.783C149.796 39.8115 149.948 40.2432 150.238 40.5698C150.529 40.8975 150.9 41.0613 151.347 41.0613C151.665 41.0613 151.935 40.9949 152.156 40.8621C152.377 40.7292 152.569 40.5521 152.737 40.3329L153.287 40.7724C152.845 41.4676 152.182 41.8152 151.298 41.8152ZM151.186 36.9741C150.822 36.9741 150.517 37.1103 150.27 37.3804C150.024 37.6517 149.87 38.0325 149.813 38.5207H152.453V38.4509C152.427 37.9827 152.304 37.6184 152.083 37.3605C151.862 37.1037 151.563 36.9741 151.186 36.9741Z" fill="white"/>
<path d="M157.144 37.1429C156.998 37.119 156.849 37.1075 156.701 37.1086C156.11 37.1086 155.709 37.3666 155.498 37.8824V41.715H154.597V36.3149H155.475L155.488 36.9381C155.783 36.4566 156.203 36.2152 156.744 36.2152C156.881 36.2077 157.018 36.2315 157.144 36.285V37.1429Z" fill="white"/>
<path d="M159.45 41.7139H158.272V36.3149H159.45V41.7139ZM158.177 34.8824C158.176 34.8101 158.191 34.7386 158.221 34.6729C158.251 34.6073 158.295 34.5491 158.351 34.5026C158.469 34.3997 158.641 34.3477 158.871 34.3477C159.1 34.3477 159.274 34.3997 159.392 34.5026C159.449 34.5486 159.494 34.6065 159.525 34.6722C159.556 34.7379 159.571 34.8098 159.571 34.8824C159.571 34.9542 159.556 35.0253 159.525 35.0901C159.494 35.155 159.449 35.2119 159.392 35.2565C159.274 35.3562 159.1 35.406 158.871 35.406C158.641 35.406 158.469 35.3562 158.351 35.2565C158.295 35.2114 158.251 35.1542 158.221 35.0894C158.191 35.0246 158.176 34.9538 158.177 34.8824Z" fill="white"/>
<path d="M162.982 41.8142C162.268 41.8142 161.686 41.574 161.237 41.0936C160.789 40.612 160.565 39.9699 160.565 39.164V38.9946C160.565 38.4588 160.665 37.9806 160.864 37.5599C161.065 37.1392 161.344 36.8093 161.702 36.5713C162.047 36.3382 162.453 36.214 162.869 36.2148C163.556 36.2148 164.087 36.4462 164.468 36.9079C164.847 37.3706 165.037 38.0326 165.037 38.895V39.2791H161.467C161.48 39.8105 161.632 40.2423 161.922 40.5688C162.213 40.8965 162.582 41.0604 163.031 41.0604C163.349 41.0604 163.619 40.9939 163.84 40.8611C164.06 40.7282 164.253 40.5511 164.419 40.3319L164.97 40.7714C164.529 41.4666 163.864 41.8142 162.982 41.8142ZM162.869 36.9732C162.506 36.9732 162.201 37.1093 161.954 37.3794C161.707 37.6507 161.554 38.0315 161.496 38.5197H164.137V38.45C164.11 37.9817 163.987 37.6175 163.767 37.3595C163.546 37.1027 163.246 36.9732 162.869 36.9732Z" fill="white"/>
<path d="M167.13 36.3145L167.16 36.9931C167.562 36.4739 168.088 36.2148 168.738 36.2148C169.851 36.2148 170.414 36.858 170.423 38.1455V41.7146H169.522V38.1411C169.519 37.7514 169.432 37.4636 169.261 37.2776C169.09 37.0916 168.825 36.9986 168.465 36.9986C168.189 36.9935 167.919 37.0773 167.694 37.2377C167.472 37.4003 167.294 37.6167 167.178 37.8665V41.7146H166.278V36.3145H167.13Z" fill="white"/>
<path d="M174.099 41.0603C174.419 41.0603 174.7 40.9607 174.941 40.7614C175.056 40.6708 175.15 40.5576 175.219 40.4289C175.288 40.3001 175.329 40.1586 175.341 40.0131H176.193C176.177 40.3231 176.074 40.6164 175.881 40.8965C175.685 41.1798 175.421 41.4097 175.114 41.5652C174.794 41.7312 174.455 41.8142 174.099 41.8142C173.38 41.8142 172.809 41.5696 172.386 41.0781C171.961 40.5876 171.75 39.9157 171.75 39.0644V38.9094C171.741 38.4269 171.837 37.9482 172.032 37.5068C172.22 37.0972 172.491 36.7805 172.843 36.5547C173.196 36.3278 173.612 36.2148 174.092 36.2148C174.684 36.2148 175.176 36.3953 175.567 36.7584C175.957 37.1215 176.167 37.592 176.193 38.171H175.341C175.325 37.8453 175.186 37.5377 174.953 37.3097C174.839 37.199 174.705 37.1122 174.557 37.0545C174.409 36.9967 174.251 36.969 174.092 36.9732C173.635 36.9732 173.281 37.1425 173.028 37.4802C172.777 37.8178 172.651 38.306 172.651 38.9448V39.1197C172.651 39.7419 172.776 40.2201 173.026 40.5566C173.276 40.8932 173.634 41.0603 174.099 41.0603Z" fill="white"/>
<path d="M179.594 41.8142C178.879 41.8142 178.299 41.574 177.851 41.0936C177.402 40.612 177.179 39.9699 177.179 39.164V38.9946C177.179 38.4588 177.278 37.9806 177.478 37.5599C177.678 37.1392 177.957 36.8093 178.316 36.5713C178.66 36.338 179.067 36.2138 179.482 36.2149C180.168 36.2149 180.7 36.4462 181.081 36.9079C181.461 37.3706 181.65 38.0326 181.65 38.895V39.2791H178.08C178.093 39.8105 178.245 40.2423 178.535 40.5688C178.672 40.7276 178.842 40.8541 179.034 40.9391C179.225 41.0241 179.433 41.0655 179.643 41.0604C179.962 41.0604 180.231 40.9939 180.451 40.8611C180.674 40.7282 180.866 40.5511 181.031 40.3319L181.581 40.7714C181.141 41.4666 180.478 41.8142 179.594 41.8142ZM179.482 36.9732C179.119 36.9732 178.814 37.1093 178.567 37.3795C178.32 37.6507 178.167 38.0315 178.109 38.5197H180.75V38.45C180.723 37.9817 180.601 37.6175 180.378 37.3595C180.158 37.1027 179.859 36.9732 179.482 36.9732Z" fill="white"/>
</g>
</g>
</g>
<defs>
<clipPath id="clip0_456_2513">
<rect width="181.5" height="44" fill="white" transform="translate(0.149414 0.415039)"/>
</clipPath>
</defs>
</svg>
