<svg width="44" height="44" viewBox="0 0 44 44" fill="none" xmlns="http://www.w3.org/2000/svg">
<path fill-rule="evenodd" clip-rule="evenodd" d="M43.0402 21.642C43.0402 33.5942 33.4058 43.2836 21.5202 43.2836C9.63493 43.2836 0 33.5942 0 21.642C0 9.68976 9.63493 0 21.5202 0C33.4058 0 43.0402 9.68976 43.0402 21.642Z" fill="#FF7803"/>
<path fill-rule="evenodd" clip-rule="evenodd" d="M14.7951 30.7951C14.7951 32.3705 13.5904 33.6468 12.1047 33.6468C10.6196 33.6468 9.41503 32.3705 9.41503 30.7951V20.2679C9.41503 18.6921 10.6196 17.4155 12.1047 17.4155C13.5904 17.4155 14.7951 18.6921 14.7951 20.2679V30.7951Z" fill="white"/>
<path fill-rule="evenodd" clip-rule="evenodd" d="M33.6249 30.7684C33.6249 32.3584 32.4207 33.6466 30.9348 33.6466C29.4492 33.6466 28.2449 32.3584 28.2449 30.7684V12.1784C28.2449 10.5884 29.4492 9.2998 30.9348 9.2998C32.4207 9.2998 33.6249 10.5884 33.6249 12.1784V30.7684Z" fill="white"/>
<path fill-rule="evenodd" clip-rule="evenodd" d="M24.21 30.987C24.21 32.4555 23.0056 33.6467 21.5198 33.6467C20.0341 33.6467 18.8299 32.4555 18.8299 30.987V16.0174C18.8299 14.5487 20.0341 13.3577 21.5198 13.3577C23.0056 13.3577 24.21 14.5487 24.21 16.0174V30.987Z" fill="white"/>
</svg>
