<svg width="74" height="74" viewBox="0 0 74 74" fill="none" xmlns="http://www.w3.org/2000/svg">
<path d="M50.0857 41.5152C50.0857 48.4612 44.3821 54.1129 37.3204 54.1129C30.2587 54.1129 24.5551 48.4612 24.5551 41.5152C24.5551 34.5692 30.2587 28.9175 37.3204 28.9175C44.3821 28.9175 50.0857 34.5692 50.0857 41.5152Z" stroke="white" stroke-width="2"/>
<path d="M37.3658 23.5641C40.4256 23.5641 42.906 20.5277 42.906 16.7821C42.906 13.0364 40.4256 10 37.3658 10C34.3061 10 31.8257 13.0364 31.8257 16.7821C31.8257 20.5277 34.3061 23.5641 37.3658 23.5641Z" fill="white"/>
<path d="M46.1799 29.1258C46.6038 28.0043 46.9224 26.8467 47.1315 25.6676C48.0039 26.0929 48.661 29.4392 48.5704 31.185C51.0907 33.8234 52.5734 37.2647 52.751 40.8881C54.5637 38.1462 59.8774 19.1765 43.846 14.4761C44.707 23.7874 38.2833 24.8394 37.5355 24.8618C36.7878 24.8842 29.8201 24.0001 30.7378 14.644C20.2014 16.9158 19.3177 26.4958 19.6236 30.0099C21.9093 28.726 24.456 27.9613 27.0784 27.7716C27.2519 26.9963 27.6135 26.2743 28.132 25.6676C28.132 26.4958 28.1887 26.9658 28.2 27.6485C28.7099 27.5814 30.0694 27.4471 31.8368 27.3799C34.1918 26.4945 36.7306 26.1927 39.2311 26.501C41.7315 26.8093 44.1174 27.7182 46.1799 29.1482V29.1258Z" fill="white"/>
<path d="M65.0423 57.0474C66.5725 54.4302 65.1513 50.7899 61.8677 48.9165C58.5841 47.0431 54.6819 47.6461 53.1516 50.2634C51.6213 52.8807 53.0425 56.5211 56.3257 58.3946C59.6093 60.268 63.5116 59.6649 65.0423 57.0474Z" fill="white"/>
<path d="M51.891 49.7298C52.2762 49.0583 56.5019 43.5633 64.2287 49.0583C67.5596 38.8964 59.6061 33.3902 56.3662 31.8569C56.3745 34.4601 55.7858 37.0313 54.644 39.3776C55.2292 39.9194 55.6758 40.5906 55.9467 41.3362L54.1682 40.4073C53.9756 40.8661 53.4431 42.0412 52.65 43.5409C52.3268 46.0464 51.3793 48.4335 49.8923 50.4884C48.4054 52.5432 46.4256 54.2014 44.1303 55.3144C44.8423 56.1211 45.6191 56.8693 46.4528 57.5525C45.7277 58.0228 43.054 57.1722 41.3886 56.3103C37.8176 57.2586 34.0212 56.9175 30.6822 55.348C33.3786 59.2426 46.3962 71.0495 57.839 60.3619C49.2399 56.4113 51.5284 50.3789 51.891 49.7298Z" fill="white"/>
<path d="M21.4707 50.2222C19.9299 47.6034 16.0325 47.0103 12.747 48.8792C9.46143 50.7482 8.09057 54.3967 9.63138 57.0042C11.1722 59.6118 15.0695 60.2276 18.3438 58.3473C21.618 56.4671 23.0341 52.841 21.4707 50.2222Z" fill="white"/>
<path d="M21.8898 41.6167C21.8898 41.0347 21.8898 40.4975 21.9918 39.8932C20.7783 40.0936 19.587 40.4084 18.4343 40.8332C18.3664 39.8372 21.1421 37.4758 22.6942 36.7595C23.5385 34.2776 25.0176 32.0532 26.9881 30.302C27.6673 29.5942 28.4278 28.967 29.254 28.433C27.1354 27.907 6.24383 32.5963 10.3451 49.1709C18.0605 43.7654 22.2071 48.7233 22.5923 49.3612C22.9774 49.9991 25.7192 56.4233 17.0521 60.3626C24.2917 68.1965 33.1286 64.1786 36.063 62.1532C33.7731 60.862 31.8093 59.0754 30.319 56.9268C29.5546 57.1501 28.749 57.1997 27.9624 57.0723L29.6618 55.953C29.4126 55.6282 28.8461 54.8339 28.155 53.8154C26.2196 52.406 24.6449 50.5687 23.557 48.4505C22.4691 46.3323 21.8981 43.9919 21.8898 41.6167Z" fill="white"/>
<path d="M27.5487 44.5511V42.9062L31.1239 37.2727H32.5856V39.5057H31.7376L29.6452 42.821V42.8892H34.8228V44.5511H27.5487ZM31.7631 46V44.0483L31.8058 43.3281V37.2727H33.7788V46H31.7631ZM39.9854 36.8636L37.1729 47.3125H35.396L38.2085 36.8636H39.9854ZM44.0859 46.1193C43.4496 46.1193 42.8842 46.0043 42.3899 45.7741C41.8956 45.544 41.505 45.2273 41.218 44.8239C40.9339 44.4205 40.7862 43.9574 40.7749 43.4347H42.8203C42.8374 43.7557 42.968 44.0142 43.2124 44.2102C43.4567 44.4034 43.7479 44.5 44.0859 44.5C44.3501 44.5 44.5845 44.4418 44.7891 44.3253C44.9936 44.2088 45.1541 44.0455 45.2706 43.8352C45.3871 43.6222 45.4439 43.3778 45.4411 43.1023C45.4439 42.821 45.3857 42.5753 45.2663 42.3651C45.1499 42.1548 44.9879 41.9915 44.7805 41.875C44.576 41.7557 44.3402 41.696 44.0732 41.696C43.8203 41.6932 43.5803 41.7486 43.353 41.8622C43.1286 41.9759 42.9581 42.1307 42.8416 42.3267L40.9794 41.9773L41.3587 37.2727H46.9581V38.973H43.093L42.8928 41.0312H42.9439C43.0888 40.7898 43.3217 40.5909 43.6428 40.4347C43.9666 40.2756 44.3345 40.196 44.7464 40.196C45.2692 40.196 45.7351 40.3182 46.1442 40.5625C46.5561 40.804 46.88 41.1392 47.1158 41.5682C47.3544 41.9972 47.4737 42.4886 47.4737 43.0426C47.4737 43.642 47.3317 44.1733 47.0476 44.6364C46.7663 45.0994 46.3714 45.4631 45.8629 45.7273C45.3572 45.9886 44.7649 46.1193 44.0859 46.1193Z" fill="white"/>
<rect x="0.5" y="0.5" width="73" height="73" rx="7.5" stroke="white"/>
</svg>
