<svg width="287" height="42" viewBox="0 0 287 42" fill="none" xmlns="http://www.w3.org/2000/svg">
<g clip-path="url(#clip0_3_104)">
<mask id="mask0_3_104" style="mask-type:luminance" maskUnits="userSpaceOnUse" x="0" y="0" width="287" height="42">
<path d="M286.701 0.415497V41.1155H0.700928V0.415497H286.701Z" fill="white"/>
</mask>
<g mask="url(#mask0_3_104)">
<path fill-rule="evenodd" clip-rule="evenodd" d="M26.2558 2.30749C32.9911 5.14879 37.6012 11.1977 37.6012 18.1816C37.6012 25.1688 32.9889 31.2177 26.2536 34.0568C19.5194 31.2188 14.906 25.1688 14.906 18.1816C14.906 11.1966 19.5194 5.14659 26.2558 2.30639V2.30749Z" fill="#002ED9"/>
<path fill-rule="evenodd" clip-rule="evenodd" d="M26.2645 2.3097C28.5976 1.0755 31.2618 0.415497 34.0778 0.415497C43.8667 0.415497 51.8131 8.3784 51.8131 18.186C51.8131 27.9936 43.8656 35.9565 34.0778 35.9565C31.2618 35.9565 28.5987 35.2987 26.2634 34.0623C29.2432 32.6178 31.7547 30.3617 33.5093 27.5533C35.264 24.745 36.1904 21.4985 36.1821 18.1871C36.1821 11.2021 32.1506 5.1521 26.2645 2.3108V2.3097Z" fill="#0099FA"/>
<path fill-rule="evenodd" clip-rule="evenodd" d="M26.2506 34.0601C23.9153 35.2965 21.2511 35.9565 18.4362 35.9565H7.96973L3.25843 40.6755C3.04918 40.8854 2.78232 41.0283 2.4917 41.0863C2.20107 41.1443 1.89978 41.1146 1.62603 41.0011C1.35193 40.8873 1.11774 40.6948 0.953072 40.4479C0.788403 40.201 0.700656 39.9108 0.700928 39.614V2.709C0.700928 1.4429 1.72613 0.415497 2.98893 0.415497H18.4934C21.2896 0.424297 23.934 1.0832 26.2517 2.3097C23.2714 3.75369 20.7593 6.00963 19.0042 8.81803C17.2491 11.6264 16.3225 14.8732 16.3308 18.1849C16.3221 21.4965 17.2485 24.7433 19.0034 27.5518C20.7583 30.3602 23.2704 32.6162 26.2506 34.0601Z" fill="#1A4DDE"/>
<path fill-rule="evenodd" clip-rule="evenodd" d="M150.742 30.2552C145.625 30.1562 141.506 26.0224 141.506 20.914C141.506 15.8023 145.64 11.6542 150.742 11.6542C155.842 11.6542 159.992 15.8023 159.992 20.914C159.992 21.431 159.947 21.937 159.872 22.432H146.071C146.666 24.5803 148.615 26.1467 150.816 26.2006C152.883 26.1962 154.608 25.7001 155.976 24.4967L158.728 27.3512C158.578 27.514 158.414 27.6702 158.252 27.8165C156.393 29.5127 153.82 30.2585 150.742 30.2552ZM175.22 28.6448L174.595 28.9803C170.164 31.4366 164.244 30.4488 164.007 24.4967L163.962 23.3384V15.678H161.047V12.026H164.082L164.424 5.811H168.35V12.026H172.9V15.678H168.35V23.6629H168.365C168.35 26.766 170.817 26.4195 172.157 25.5681L175.22 28.6448ZM119.034 28.8758C117.609 29.7274 115.98 30.176 114.32 30.1738C109.219 30.1738 105.07 26.0224 105.07 20.914C105.07 15.8023 109.219 11.6542 114.32 11.6542C116.03 11.6542 117.636 12.1228 119.02 12.9412C119.584 13.2756 120.7 14.1413 121.384 15.3106L118.321 18.3092C117.518 16.7395 116.06 15.6802 114.32 15.6802C111.717 15.6802 109.814 18.0243 109.814 20.914C109.814 23.8004 111.717 26.1467 114.32 26.1467C116.06 26.1467 117.518 25.0874 118.321 23.5155L121.384 26.5108C120.7 27.6757 119.584 28.5392 119.02 28.8736L119.034 28.8758ZM93.619 11.6531C98.7197 11.6531 102.855 15.8012 102.855 20.9129C102.855 26.0213 98.7197 30.1727 93.619 30.1727C88.5183 30.1727 84.368 26.0213 84.368 20.9129C84.368 15.8012 88.5183 11.6531 93.619 11.6531ZM128.448 19.3938L130.932 16.2632L135.126 12.0062H141.193L132.835 20.5818L141.892 29.8845H135.825L129.802 23.6981L128.85 24.4648L128.835 29.8845H124.314V5.8121H128.835V14.3844L128.448 19.3938ZM73.0523 5.8121C78.197 5.8121 82.3605 10.4508 82.3605 15.6021V15.6109C82.3605 20.7611 78.197 25.6088 73.0512 25.6088H69.6456V29.8856H64.4998V5.8121H73.0523ZM93.619 15.6813C96.2062 15.6813 98.0652 18.0243 98.0652 20.914C98.0652 23.8004 96.2062 26.1467 93.619 26.1467C91.0164 26.1467 89.0826 23.8004 89.0826 20.914C89.0826 18.0243 91.0164 15.6813 93.619 15.6813ZM77.2752 15.6043C77.2752 13.0446 75.3722 10.5069 72.8279 10.5069H69.6456V20.9129H72.8279C75.3711 20.9129 77.2752 18.6469 77.2752 15.6087V15.6043ZM155.366 19.3949C154.771 17.2466 152.867 15.6109 150.742 15.6109C148.629 15.6109 146.666 17.2466 146.071 19.3949H155.366Z" fill="white"/>
<path fill-rule="evenodd" clip-rule="evenodd" d="M207.85 14.1875C209.589 12.5177 211.908 11.5872 214.319 11.5915C219.494 11.5915 223.702 15.8045 223.702 20.9932C223.702 26.1808 219.494 30.3938 214.319 30.3938C211.908 30.3981 209.59 29.4684 207.85 27.8V36.4427H204.935V12.0865H207.85V14.1875ZM238.069 28.9341L237.429 29.2685C232.938 31.7622 228.046 30.2816 227.822 24.5033V14.6781H224.431V12.1041H227.822V5.69986H230.736V12.1041H235.941V14.6781H230.736V23.9511C230.736 28.4391 234.396 28.0948 235.899 26.7616L238.069 28.9341ZM256.569 11.5926C261.744 11.5926 265.953 15.8045 265.953 20.9932C265.953 26.1808 261.744 30.3938 256.569 30.3938C251.394 30.3938 247.186 26.1808 247.186 20.9932C247.186 15.8045 251.394 11.5926 256.569 11.5926ZM189.169 5.45346C196.011 5.45346 201.544 11.0085 201.544 17.8505C201.544 24.6947 196.011 30.2508 189.169 30.2508C182.344 30.2508 176.797 24.6958 176.797 17.8516C176.797 11.0074 182.344 5.45346 189.169 5.45346ZM243.913 12.0865H240.998V29.8812H243.913V12.0865ZM283.799 20.9932C283.799 17.0882 281.762 14.0995 278.164 14.0995C275.204 14.0995 271.708 15.8199 271.708 20.991V29.8812H268.853V12.0854H271.708V14.3228C273.464 12.1778 276.126 11.5926 278.372 11.5926C283.442 11.5926 286.744 14.754 286.7 20.452C286.7 20.5983 286.684 20.892 286.67 21.1769V29.8812H283.799V20.9932ZM256.569 13.9202C260.243 13.9202 263.231 17.0882 263.231 20.9932C263.231 24.896 260.243 28.0662 256.569 28.0662C252.896 28.0662 249.921 24.896 249.921 20.9932C249.921 17.0882 252.896 13.9202 256.569 13.9202ZM214.319 13.9202C217.992 13.9202 220.966 17.0882 220.966 20.9932C220.966 24.896 217.992 28.0662 214.319 28.0662C210.646 28.0662 207.671 24.896 207.671 20.9932C207.671 17.0882 210.646 13.9202 214.319 13.9202ZM189.169 8.02966C194.271 8.02966 198.406 12.4297 198.406 17.8516C198.406 23.2724 194.271 27.6746 189.169 27.6746C184.084 27.6746 179.935 23.2724 179.935 17.8516C179.935 12.4308 184.084 8.02966 189.169 8.02966ZM242.456 5.69986C242.979 5.71716 243.476 5.9374 243.84 6.31405C244.205 6.6907 244.409 7.19427 244.409 7.71836C244.409 8.24245 244.205 8.74602 243.84 9.12267C243.476 9.49933 242.979 9.71957 242.456 9.73686C241.92 9.73686 241.406 9.52449 241.027 9.14631C240.648 8.76813 240.434 8.25501 240.433 7.71946C240.433 6.60406 241.34 5.69986 242.456 5.69986Z" fill="white"/>
</g>
</g>
<defs>
<clipPath id="clip0_3_104">
<rect width="286" height="40.7" fill="white" transform="translate(0.698975 0.415497)"/>
</clipPath>
</defs>
</svg>
