<svg width="235" height="169" viewBox="0 0 235 169" fill="none" xmlns="http://www.w3.org/2000/svg">
<g opacity="0.7" filter="url(#filter0_f_743_8539)">
<path d="M47.7211 155.828C53.1987 155.828 57.6391 151.387 57.6391 145.91C57.6391 140.432 53.1987 135.992 47.7211 135.992C42.2436 135.992 37.8032 140.432 37.8032 145.91C37.8032 151.387 42.2436 155.828 47.7211 155.828Z" fill="#FFD33A"/>
<path d="M47.7209 135C45.5631 135 43.4538 135.64 41.6597 136.839C39.8656 138.037 38.4673 139.741 37.6416 141.735C36.8158 143.728 36.5998 145.922 37.0207 148.038C37.4417 150.154 38.4807 152.098 40.0065 153.624C41.5323 155.15 43.4762 156.189 45.5925 156.61C47.7088 157.031 49.9024 156.815 51.8959 155.989C53.8894 155.163 55.5932 153.765 56.792 151.971C57.9908 150.177 58.6307 148.068 58.6307 145.91C58.6272 143.017 57.4767 140.244 55.4315 138.199C53.3862 136.154 50.6133 135.003 47.7209 135ZM47.7209 154.836C45.9554 154.836 44.2297 154.312 42.7618 153.332C41.2939 152.351 40.1498 150.957 39.4742 149.326C38.7986 147.695 38.6218 145.9 38.9662 144.168C39.3106 142.437 40.1608 140.846 41.4091 139.598C42.6575 138.35 44.248 137.5 45.9795 137.155C47.711 136.811 49.5057 136.987 51.1368 137.663C52.7678 138.339 54.1619 139.483 55.1427 140.951C56.1235 142.419 56.6471 144.144 56.6471 145.91C56.6443 148.276 55.703 150.545 54.0296 152.218C52.3562 153.892 50.0874 154.833 47.7209 154.836Z" fill="#FFB632"/>
<path d="M50.6935 147.893C50.6929 148.508 50.5019 149.108 50.1468 149.61C49.7916 150.112 49.2897 150.492 48.7099 150.697V151.86C48.7099 152.123 48.6054 152.375 48.4194 152.561C48.2334 152.747 47.9812 152.852 47.7181 152.852C47.4551 152.852 47.2028 152.747 47.0168 152.561C46.8308 152.375 46.7263 152.123 46.7263 151.86V150.868H45.7345C45.4715 150.868 45.2192 150.764 45.0332 150.578C44.8472 150.392 44.7427 150.14 44.7427 149.877C44.7427 149.614 44.8472 149.361 45.0332 149.175C45.2192 148.989 45.4715 148.885 45.7345 148.885H47.7181C47.9812 148.885 48.2334 148.78 48.4194 148.594C48.6054 148.408 48.7099 148.156 48.7099 147.893C48.7099 147.63 48.6054 147.378 48.4194 147.192C48.2334 147.006 47.9812 146.901 47.7181 146.901C47.0167 146.901 46.3381 146.652 45.802 146.2C45.2659 145.748 44.9068 145.12 44.7882 144.429C44.6696 143.738 44.799 143.027 45.1536 142.422C45.5082 141.816 46.0652 141.356 46.7263 141.121V139.959C46.7263 139.696 46.8308 139.443 47.0168 139.257C47.2028 139.071 47.4551 138.967 47.7181 138.967C47.9812 138.967 48.2334 139.071 48.4194 139.257C48.6054 139.443 48.7099 139.696 48.7099 139.959V140.95H49.7017C49.9648 140.95 50.217 141.055 50.403 141.241C50.589 141.427 50.6935 141.679 50.6935 141.942C50.6935 142.205 50.589 142.457 50.403 142.643C50.217 142.829 49.9648 142.934 49.7017 142.934H47.7181C47.4551 142.934 47.2028 143.038 47.0168 143.224C46.8308 143.41 46.7263 143.663 46.7263 143.926C46.7263 144.189 46.8308 144.441 47.0168 144.627C47.2028 144.813 47.4551 144.918 47.7181 144.918C48.5069 144.919 49.2631 145.232 49.8209 145.79C50.3787 146.348 50.6925 147.104 50.6935 147.893Z" fill="#FFB632"/>
</g>
<path d="M173.854 28L173.854 137.315" stroke="#F15131" stroke-opacity="0.75" stroke-width="3.83562"/>
<path d="M179.609 43.3423V102.794H170.02V43.3423H179.609Z" fill="#F15131"/>
<path d="M219.884 68.2739V160.329" stroke="#1FBF75" stroke-opacity="0.75" stroke-width="3.83562"/>
<path d="M223.719 79.7803V139.232H214.13V79.7803H223.719Z" fill="#1FBF75"/>
<path d="M196.87 52.9312V133.479" stroke="#C4C4C4" stroke-opacity="0.75" stroke-width="3.83562"/>
<path d="M201.254 57.2529V107.43H192.212V57.2529H201.254Z" fill="#C4C4C4"/>
<g filter="url(#filter1_f_743_8539)">
<path d="M196.735 33.8125V47.4857" stroke="#C4C4C4" stroke-opacity="0.4" stroke-width="3.83562"/>
<path d="M201.259 8.42041V33.5089H192.218V8.42041H201.259Z" fill="#C4C4C4" fill-opacity="0.4"/>
</g>
<path d="M151.526 44.2295V115.2" stroke="#C4C4C4" stroke-width="3.83562"/>
<path d="M156.049 52.0439V97.6214H147.007V52.0439H156.049Z" fill="#C4C4C4"/>
<path d="M189.104 158.271C189.205 158.169 189.285 158.048 189.339 157.916C189.393 157.783 189.421 157.641 189.42 157.497V149.87H191.599C191.807 149.87 192.01 149.812 192.185 149.701C192.36 149.59 192.499 149.431 192.587 149.243C192.676 149.056 192.708 148.847 192.682 148.641C192.655 148.436 192.571 148.242 192.438 148.083L186.99 141.545C186.888 141.422 186.76 141.323 186.615 141.254C186.47 141.186 186.312 141.151 186.151 141.151C185.991 141.151 185.833 141.186 185.688 141.254C185.543 141.323 185.415 141.422 185.312 141.545L179.864 148.083C179.732 148.242 179.647 148.436 179.621 148.641C179.594 148.847 179.627 149.056 179.715 149.243C179.803 149.431 179.943 149.59 180.118 149.701C180.293 149.812 180.496 149.87 180.703 149.87H182.882V157.497C182.882 157.786 182.997 158.063 183.202 158.268C183.406 158.472 183.683 158.587 183.972 158.587H188.331C188.474 158.588 188.616 158.56 188.749 158.506C188.882 158.452 189.002 158.372 189.104 158.271Z" fill="#3F9C35"/>
<path d="M200.22 160.308C200.132 160.119 199.992 159.959 199.817 159.847C199.641 159.735 199.437 159.676 199.228 159.676H197.049V152.049C197.049 151.76 196.934 151.483 196.73 151.279C196.526 151.074 196.248 150.959 195.959 150.959H191.601C191.458 150.959 191.315 150.986 191.183 151.04C191.05 151.095 190.929 151.174 190.827 151.275C190.726 151.377 190.646 151.498 190.592 151.631C190.538 151.764 190.511 151.906 190.511 152.049V159.676H188.332C188.125 159.676 187.922 159.735 187.747 159.846C187.572 159.957 187.432 160.115 187.344 160.303C187.256 160.491 187.223 160.699 187.25 160.905C187.276 161.11 187.36 161.304 187.493 161.463L192.941 168.001C193.043 168.124 193.172 168.224 193.317 168.292C193.462 168.36 193.62 168.395 193.78 168.395C193.94 168.395 194.099 168.36 194.244 168.292C194.389 168.224 194.517 168.124 194.619 168.001L200.067 161.463C200.199 161.305 200.284 161.112 200.311 160.908C200.338 160.704 200.306 160.496 200.22 160.308Z" fill="#CC0000"/>
<g clip-path="url(#clip0_743_8539)">
<path d="M143.151 138.336V136.794C143.151 136.638 143.278 136.507 143.438 136.507H146.662V133.287C146.662 133.13 146.789 133 146.948 133H148.49C148.647 133 148.774 133.127 148.774 133.287V136.511H151.994C152.151 136.511 152.281 136.638 152.281 136.798V138.339C152.281 138.496 152.154 138.623 151.994 138.623H148.771V141.844C148.771 142 148.643 142.13 148.487 142.13H146.945C146.789 142.13 146.658 142.003 146.658 141.844V138.62H143.438C143.278 138.623 143.151 138.493 143.151 138.336Z" fill="#4BAE4F"/>
</g>
<g clip-path="url(#clip1_743_8539)">
<path d="M123.37 43.988V42.4462C123.37 42.2897 123.497 42.1593 123.656 42.1593H126.88V38.9387C126.88 38.7822 127.007 38.6519 127.167 38.6519H128.709C128.865 38.6519 128.992 38.779 128.992 38.9387V42.1626H132.213C132.37 42.1626 132.5 42.2897 132.5 42.4494V43.9913C132.5 44.1477 132.373 44.2748 132.213 44.2748H128.989V47.4954C128.989 47.6519 128.862 47.7823 128.706 47.7823H127.164C127.007 47.7823 126.877 47.6552 126.877 47.4954V44.2716H123.656C123.497 44.2748 123.37 44.1445 123.37 43.988Z" fill="#F15131"/>
</g>
<g clip-path="url(#clip2_743_8539)">
<path d="M34.2857 55.3665V52.9293C34.2857 52.682 34.4867 52.4759 34.7391 52.4759H39.8351V47.3851C39.8351 47.1377 40.0361 46.9316 40.2885 46.9316H42.7257C42.9731 46.9316 43.174 47.1326 43.174 47.3851V52.481H48.2648C48.5122 52.481 48.7183 52.682 48.7183 52.9345V55.3717C48.7183 55.619 48.5173 55.82 48.2648 55.82H43.1689V60.9108C43.1689 61.1581 42.9679 61.3642 42.7206 61.3642H40.2834C40.0361 61.3642 39.83 61.1632 39.83 60.9108V55.8148H34.7391C34.4867 55.82 34.2857 55.6138 34.2857 55.3665Z" fill="#1FBF75"/>
</g>
<path d="M220.085 61.304L210.297 49.0957H229.873L220.085 61.304Z" fill="#E83333"/>
<path d="M131.066 66.6782C131.066 58.8122 124.667 52.4126 116.801 52.4126C106.584 52.4126 99.6648 62.905 103.681 72.2783C95.0381 75.1591 93.0686 75.8134 92.9725 75.852C88.9441 68.8271 81.3692 64.0845 72.707 64.0845C59.8352 64.0845 49.3633 74.5564 49.3633 87.4282C49.3633 95.7078 53.6966 102.994 60.2139 107.139C60.2967 107.207 60.3887 107.264 60.4867 107.31C67.9066 111.887 77.2594 111.923 84.7015 107.448L96.2865 116.135C89.7543 123.719 95.2132 135.413 105.129 135.413C111.57 135.413 116.801 130.167 116.801 123.741C116.801 114.14 105.839 108.724 98.2185 114.342L86.9621 105.9C95.5868 99.2295 98.2868 87.7693 94.1437 78.1912L104.938 74.5931C106.133 76.3779 107.72 77.8788 109.574 78.9731C109.63 79.0123 109.69 79.0467 109.752 79.0768C114.037 81.5229 119.411 81.6106 123.85 79.0768C123.912 79.0467 123.972 79.0123 124.028 78.9731C128.236 76.4897 131.066 71.9087 131.066 66.6782ZM62.332 105.393V100.397C62.332 94.6761 66.9862 90.022 72.707 90.022C78.4405 90.022 83.082 94.6632 83.082 100.397V105.393C76.6768 109.106 68.7457 109.111 62.332 105.393ZM66.2227 80.9438C66.2227 77.3684 69.1315 74.4595 72.707 74.4595C76.2825 74.4595 79.1914 77.3684 79.1914 80.9438C79.1914 84.5193 76.2825 87.4282 72.707 87.4282C69.1315 87.4282 66.2227 84.5193 66.2227 80.9438ZM103.832 123.199C103.832 122.484 104.414 121.902 105.129 121.902C105.844 121.902 106.426 122.484 106.426 123.199C106.426 123.914 105.844 124.496 105.129 124.496C104.414 124.496 103.832 123.914 103.832 123.199ZM102.535 132.439V129.684C102.535 128.254 103.699 127.09 105.129 127.09C106.56 127.09 107.723 128.25 107.723 129.684V132.439C106.029 132.945 104.23 132.946 102.535 132.439ZM114.207 123.741C114.207 126.819 112.666 129.542 110.316 131.184C110.316 129.566 110.561 127.279 108.24 125.533C110.15 122.993 108.342 119.309 105.129 119.309C101.917 119.309 100.106 122.993 102.019 125.535C100.758 126.482 99.9414 127.989 99.9414 129.684V131.184C97.5918 129.542 96.0508 126.819 96.0508 123.741C96.0508 118.735 100.123 114.662 105.129 114.662C110.135 114.662 114.207 118.735 114.207 123.741ZM85.6758 103.613V100.397C85.6758 94.9931 82.388 90.4206 77.7905 88.4613C80.1992 86.8273 81.7852 84.0674 81.7852 80.9438C81.7852 75.9382 77.7126 71.8657 72.707 71.8657C67.7014 71.8657 63.6289 75.9382 63.6289 80.9438C63.6289 84.0696 65.2169 86.8313 67.6286 88.4649C62.9944 90.4448 59.7383 95.0474 59.7383 100.397V103.613C54.9977 99.8072 51.957 93.9666 51.957 87.4282C51.957 75.9865 61.2654 66.6782 72.707 66.6782C84.1487 66.6782 93.457 75.9865 93.457 87.4282C93.457 93.9666 90.4163 99.8072 85.6758 103.613ZM116.801 55.0063C127.487 55.0063 132.537 68.2526 124.573 75.3765C124.44 72.5912 122.85 70.2129 120.565 68.9452C123.68 65.6564 121.348 60.1938 116.801 60.1938C112.252 60.1938 109.92 65.6594 113.039 68.9478C110.749 70.2182 109.163 72.6098 109.029 75.3768C101.064 68.253 106.115 55.0063 116.801 55.0063ZM114.207 65.3813C114.207 63.9512 115.371 62.7876 116.801 62.7876C118.231 62.7876 119.395 63.9512 119.395 65.3813C119.395 66.8115 118.231 67.9751 116.801 67.9751C115.371 67.9751 114.207 66.8115 114.207 65.3813ZM111.613 77.1297V75.7563C111.613 72.8959 113.94 70.5688 116.801 70.5688C119.666 70.5688 121.988 72.8909 121.988 75.7563V77.1297C118.787 78.7254 114.943 78.7893 111.613 77.1297Z" fill="url(#paint0_linear_743_8539)"/>
<defs>
<filter id="filter0_f_743_8539" x="35.8193" y="134.008" width="23.8032" height="23.8029" filterUnits="userSpaceOnUse" color-interpolation-filters="sRGB">
<feFlood flood-opacity="0" result="BackgroundImageFix"/>
<feBlend mode="normal" in="SourceGraphic" in2="BackgroundImageFix" result="shape"/>
<feGaussianBlur stdDeviation="0.495899" result="effect1_foregroundBlur_743_8539"/>
</filter>
<filter id="filter1_f_743_8539" x="184.546" y="0.749178" width="24.3843" height="54.4079" filterUnits="userSpaceOnUse" color-interpolation-filters="sRGB">
<feFlood flood-opacity="0" result="BackgroundImageFix"/>
<feBlend mode="normal" in="SourceGraphic" in2="BackgroundImageFix" result="shape"/>
<feGaussianBlur stdDeviation="3.83562" result="effect1_foregroundBlur_743_8539"/>
</filter>
<linearGradient id="paint0_linear_743_8539" x1="39.0956" y1="94.0822" x2="144.391" y2="93.8338" gradientUnits="userSpaceOnUse">
<stop stop-color="#EA4335"/>
<stop offset="0.186" stop-color="#FBBC05"/>
<stop offset="0.552" stop-color="#4285F4"/>
<stop offset="1" stop-color="#34A853"/>
</linearGradient>
<clipPath id="clip0_743_8539">
<rect width="26.8493" height="26.8493" fill="white" transform="translate(133.584 123.891)"/>
</clipPath>
<clipPath id="clip1_743_8539">
<rect width="26.8493" height="26.8493" fill="white" transform="translate(114.407 31.8354)"/>
</clipPath>
<clipPath id="clip2_743_8539">
<rect width="36.378" height="36.378" fill="white" transform="translate(22.4791 39.0234)"/>
</clipPath>
</defs>
</svg>
